<?xml version="1.0" encoding="UTF-8" standalone="no"?>
<!DOCTYPE svg PUBLIC "-//W3C//DTD SVG 1.1//EN" "http://www.w3.org/Graphics/SVG/1.1/DTD/svg11.dtd">
<svg width="100%" height="100%" viewBox="0 0 1191 842" version="1.1" xmlns="http://www.w3.org/2000/svg" xmlns:xlink="http://www.w3.org/1999/xlink" xml:space="preserve" xmlns:serif="http://www.serif.com/" style="fill-rule:evenodd;clip-rule:evenodd;stroke-linecap:round;stroke-linejoin:round;">
    <g transform="matrix(2.834646,0,0,2.834646,0,0)">
        <path d="M61.214,44.831C61.214,44.274 60.755,43.815 60.198,43.815" style="fill:none;fill-rule:nonzero;stroke:black;stroke-width:0.11px;"/>
        <path d="M147.32,135.636L137.795,135.636" style="fill:none;fill-rule:nonzero;stroke:black;stroke-width:0.11px;"/>
        <path d="M137.033,134.874C137.033,135.292 137.377,135.636 137.795,135.636" style="fill:none;fill-rule:nonzero;stroke:black;stroke-width:0.11px;"/>
        <path d="M47.815,147.955L282.065,147.955" style="fill:none;fill-rule:nonzero;stroke:black;stroke-width:0.11px;"/>
    </g>
    <g transform="matrix(2.834646,0,0,2.834646,0,0)">
        <path d="M61.214,52.959L74.168,52.959" style="fill:none;fill-rule:nonzero;stroke:black;stroke-width:0.11px;"/>
    </g>
    <g transform="matrix(2.834646,0,0,2.834646,0,0)">
        <path d="M75.438,43.815C74.741,43.815 74.168,44.388 74.168,45.085" style="fill:none;fill-rule:nonzero;stroke:black;stroke-width:0.11px;"/>
        <path d="M148.209,131.445C148.209,131.027 147.865,130.683 147.447,130.683" style="fill:none;fill-rule:nonzero;stroke:black;stroke-width:0.11px;"/>
        <path d="M47.815,43.815C45.621,43.815 43.815,45.621 43.815,47.815" style="fill:none;fill-rule:nonzero;stroke:black;stroke-width:0.11px;"/>
        <path d="M137.541,130.683C137.262,130.683 137.033,130.912 137.033,131.191" style="fill:none;fill-rule:nonzero;stroke:black;stroke-width:0.11px;"/>
        <path d="M148.209,131.445L148.209,134.747" style="fill:none;fill-rule:nonzero;stroke:black;stroke-width:0.11px;"/>
        <path d="M286.065,47.815C286.065,45.621 284.259,43.815 282.065,43.815" style="fill:none;fill-rule:nonzero;stroke:black;stroke-width:0.11px;"/>
        <path d="M74.168,52.959L74.168,45.085" style="fill:none;fill-rule:nonzero;stroke:black;stroke-width:0.11px;"/>
        <path d="M43.815,143.955L43.815,47.815" style="fill:none;fill-rule:nonzero;stroke:black;stroke-width:0.11px;"/>
        <path d="M147.32,135.636C147.808,135.636 148.209,135.235 148.209,134.747" style="fill:none;fill-rule:nonzero;stroke:black;stroke-width:0.11px;"/>
        <path d="M43.815,143.955C43.815,146.149 45.621,147.955 47.815,147.955" style="fill:none;fill-rule:nonzero;stroke:black;stroke-width:0.11px;"/>
        <path d="M61.214,44.831L61.214,52.959" style="fill:none;fill-rule:nonzero;stroke:black;stroke-width:0.11px;"/>
        <path d="M137.541,130.683L147.447,130.683" style="fill:none;fill-rule:nonzero;stroke:black;stroke-width:0.11px;"/>
        <path d="M286.065,143.955L286.065,47.815" style="fill:none;fill-rule:nonzero;stroke:black;stroke-width:0.11px;"/>
    </g>
    <g transform="matrix(2.834646,0,0,2.834646,0,0)">
        <path d="M47.815,43.815L60.198,43.815" style="fill:none;fill-rule:nonzero;stroke:black;stroke-width:0.11px;"/>
    </g>
    <g transform="matrix(2.834646,0,0,2.834646,0,0)">
        <path d="M282.065,147.955C284.259,147.955 286.065,146.149 286.065,143.955" style="fill:none;fill-rule:nonzero;stroke:black;stroke-width:0.11px;"/>
        <path d="M137.033,134.874L137.033,131.191" style="fill:none;fill-rule:nonzero;stroke:black;stroke-width:0.11px;"/>
        <path d="M282.065,43.815L75.438,43.815" style="fill:none;fill-rule:nonzero;stroke:black;stroke-width:0.11px;"/>
    </g>
    <g transform="matrix(2.834646,0,0,2.834646,0,0)">
        <circle cx="47.498" cy="47.625" r="1.15" style="fill:none;stroke:black;stroke-width:0.11px;"/>
        <circle cx="231.394" cy="144.145" r="1.15" style="fill:none;stroke:black;stroke-width:0.11px;"/>
        <circle cx="281.813" cy="47.625" r="1.15" style="fill:none;stroke:black;stroke-width:0.11px;"/>
        <circle cx="109.982" cy="144.145" r="1.15" style="fill:none;stroke:black;stroke-width:0.11px;"/>
        <circle cx="47.498" cy="86.233" r="1.15" style="fill:none;stroke:black;stroke-width:0.11px;"/>
        <circle cx="129.286" cy="86.233" r="1.15" style="fill:none;stroke:black;stroke-width:0.11px;"/>
        <circle cx="210.185" cy="86.233" r="1.15" style="fill:none;stroke:black;stroke-width:0.11px;"/>
        <circle cx="47.498" cy="144.145" r="1.15" style="fill:none;stroke:black;stroke-width:0.11px;"/>
        <circle cx="281.813" cy="104.521" r="1.15" style="fill:none;stroke:black;stroke-width:0.11px;"/>
        <circle cx="281.813" cy="144.145" r="1.15" style="fill:none;stroke:black;stroke-width:0.11px;"/>
        <circle cx="162.433" cy="47.625" r="1.15" style="fill:none;stroke:black;stroke-width:0.11px;"/>
    </g>
</svg>
